<svg xmlns="http://www.w3.org/2000/svg" viewBox="0 0 512 512" aria-hidden="true">
  <path fill="currentColor" d="M5.633 507.113h106.324a17.22 17.22 0 0 0 13.762-7.508l292.715-480.96c3.753-6.25-.622-13.758-8.13-13.758H309.61a13.371 13.371 0 0 0-11.882 6.89L.64 498.367c-1.88 3.754.617 8.746 4.992 8.746Zm366.527-7.508 138.22-222.039a10.185 10.185 0 0 0 .297-10.43 10.181 10.181 0 0 0-9.043-5.206H401.559a11.031 11.031 0 0 0-9.387 5.015L250.199 493.996c-3.758 5.629.617 13.14 7.508 13.14H359.66a13.825 13.825 0 0 0 12.5-7.53Z"/>
</svg>